<svg width="85" height="120" viewBox="0 0 85 120" fill="none" xmlns="http://www.w3.org/2000/svg">
<path fill-rule="evenodd" clip-rule="evenodd" d="M25 15C0.147186 15 -20 35.1472 -20 60C-20 84.8528 0.147186 105 25 105C49.8528 105 70 84.8528 70 60C70 35.1472 49.8528 15 25 15ZM-30 60C-30 29.6243 -5.37566 5 25 5C55.3757 5 80 29.6243 80 60C80 90.3757 55.3757 115 25 115C-5.37566 115 -30 90.3757 -30 60Z" fill="#D5D5D5"/>
<path fill-rule="evenodd" clip-rule="evenodd" d="M25 35C27.7614 35 30 37.2386 30 40V60C30 62.7614 27.7614 65 25 65C22.2386 65 20 62.7614 20 60V40C20 37.2386 22.2386 35 25 35Z" fill="#D5D5D5"/>
<path fill-rule="evenodd" clip-rule="evenodd" d="M20 80C20 77.2386 22.2386 75 25 75H25.05C27.8114 75 30.05 77.2386 30.05 80C30.05 82.7614 27.8114 85 25.05 85H25C22.2386 85 20 82.7614 20 80Z" fill="#D5D5D5"/>
</svg>
