<svg width="43" height="43" viewBox="0 0 43 43" fill="none" xmlns="http://www.w3.org/2000/svg">
<path fill-rule="evenodd" clip-rule="evenodd" d="M5.37498 24.7251C6.56239 24.7251 7.52498 25.6877 7.52498 26.8751V34.0418C7.52498 34.4219 7.67599 34.7865 7.94479 35.0553C8.21359 35.3241 8.57817 35.4751 8.95831 35.4751H34.0416C34.4218 35.4751 34.7864 35.3241 35.0552 35.0553C35.324 34.7865 35.475 34.4219 35.475 34.0418V26.8751C35.475 25.6877 36.4376 24.7251 37.625 24.7251C38.8124 24.7251 39.775 25.6877 39.775 26.8751V34.0418C39.775 35.5623 39.1709 37.0206 38.0957 38.0958C37.0205 39.1711 35.5622 39.7751 34.0416 39.7751H8.95831C7.43773 39.7751 5.97944 39.1711 4.90423 38.0958C3.82902 37.0206 3.22498 35.5623 3.22498 34.0418V26.8751C3.22498 25.6877 4.18756 24.7251 5.37498 24.7251Z" fill="#0D47A1"/>
<path fill-rule="evenodd" clip-rule="evenodd" d="M11.0214 15.8537C11.861 16.6933 13.2223 16.6933 14.0619 15.8537L21.5 8.41562L28.938 15.8537C29.7777 16.6933 31.139 16.6933 31.9786 15.8537C32.8182 15.0141 32.8182 13.6527 31.9786 12.8131L23.0203 3.85478C22.6171 3.45158 22.0702 3.22506 21.5 3.22506C20.9298 3.22506 20.3829 3.45158 19.9797 3.85478L11.0214 12.8131C10.1818 13.6527 10.1818 15.0141 11.0214 15.8537Z" fill="#0D47A1"/>
<path fill-rule="evenodd" clip-rule="evenodd" d="M21.5 29.0249C22.6874 29.0249 23.65 28.0623 23.65 26.8749V5.3749C23.65 4.18749 22.6874 3.2249 21.5 3.2249C20.3126 3.2249 19.35 4.18749 19.35 5.3749V26.8749C19.35 28.0623 20.3126 29.0249 21.5 29.0249Z" fill="#0D47A1"/>
</svg>
