<svg width="74" height="74" viewBox="0 0 74 74" fill="none" xmlns="http://www.w3.org/2000/svg">
<path d="M51.1957 34.0647C53.0736 30.8645 53.8845 27.1498 53.5112 23.4581C52.9593 17.9574 49.8883 13.095 44.8687 9.76807L41.4616 14.9049C44.9118 17.1927 47.0116 20.4518 47.3754 24.0747C47.5432 25.7585 47.3336 27.4586 46.7618 29.0512C46.19 30.6438 45.2705 32.089 44.0701 33.2816L40.3947 36.9569L45.3836 38.4215C58.4322 42.2448 58.5833 55.3675 58.5833 55.5001H64.75C64.75 49.984 61.8023 39.2047 51.1957 34.0647Z" fill="#0D47A1"/>
<path d="M29.2917 37.0002C36.0935 37.0002 41.625 31.4687 41.625 24.6668C41.625 17.865 36.0935 12.3335 29.2917 12.3335C22.4898 12.3335 16.9583 17.865 16.9583 24.6668C16.9583 31.4687 22.4898 37.0002 29.2917 37.0002ZM29.2917 18.5002C32.6926 18.5002 35.4583 21.2659 35.4583 24.6668C35.4583 28.0677 32.6926 30.8335 29.2917 30.8335C25.8907 30.8335 23.125 28.0677 23.125 24.6668C23.125 21.2659 25.8907 18.5002 29.2917 18.5002ZM33.9167 40.0835H24.6667C14.4639 40.0835 6.16666 48.3807 6.16666 58.5835V61.6668H12.3333V58.5835C12.3333 51.7817 17.8648 46.2502 24.6667 46.2502H33.9167C40.7185 46.2502 46.25 51.7817 46.25 58.5835V61.6668H52.4167V58.5835C52.4167 48.3807 44.1194 40.0835 33.9167 40.0835Z" fill="#0D47A1"/>
</svg>
