<svg width="74" height="75" viewBox="0 0 74 75" fill="none" xmlns="http://www.w3.org/2000/svg">
<path d="M64.75 21.875H46.25C45.4322 21.875 44.648 22.2042 44.0697 22.7903C43.4915 23.3763 43.1667 24.1712 43.1667 25V34.375H37V12.5C37 11.6712 36.6751 10.8763 36.0969 10.2903C35.5187 9.70424 34.7344 9.375 33.9167 9.375H9.24999C8.43224 9.375 7.64798 9.70424 7.06974 10.2903C6.49151 10.8763 6.16666 11.6712 6.16666 12.5V62.5C6.16666 63.3288 6.49151 64.1237 7.06974 64.7097C7.64798 65.2958 8.43224 65.625 9.24999 65.625H64.75C65.5677 65.625 66.352 65.2958 66.9302 64.7097C67.5085 64.1237 67.8333 63.3288 67.8333 62.5V25C67.8333 24.1712 67.5085 23.3763 66.9302 22.7903C66.352 22.2042 65.5677 21.875 64.75 21.875ZM24.6667 18.75H30.8333V25H24.6667V18.75ZM18.5 50H12.3333V43.75H18.5V50ZM18.5 37.5H12.3333V31.25H18.5V37.5ZM18.5 25H12.3333V18.75H18.5V25ZM30.8333 50H24.6667V43.75H30.8333V50ZM30.8333 37.5H24.6667V31.25H30.8333V37.5ZM58.5833 50H52.4167V43.75H58.5833V50ZM58.5833 37.5H52.4167V31.25H58.5833V37.5Z" fill="#0D47A1"/>
</svg>
