<svg width="74" height="74" viewBox="0 0 74 74" fill="none" xmlns="http://www.w3.org/2000/svg">
<path d="M24.6667 64.7502H30.8333V55.5002H49.3333V49.3335H30.8333V43.1668H44.7083C53.2091 43.1668 60.125 36.2509 60.125 27.7502C60.125 19.2494 53.2091 12.3335 44.7083 12.3335H27.75C26.9322 12.3335 26.148 12.6583 25.5697 13.2366C24.9915 13.8148 24.6667 14.5991 24.6667 15.4168V37.0002H15.4167V43.1668H24.6667V49.3335H15.4167V55.5002H24.6667V64.7502ZM30.8333 18.5002H44.7083C49.8082 18.5002 53.9583 22.6503 53.9583 27.7502C53.9583 32.85 49.8082 37.0002 44.7083 37.0002H30.8333V18.5002Z" fill="#0D47A1"/>
</svg>
