<svg width="20" height="20" viewBox="0 0 20 20" fill="none" xmlns="http://www.w3.org/2000/svg">
<path d="M6.06449 16.9999H3.6258C3.19461 16.9999 2.78108 16.8419 2.47618 16.5606C2.17129 16.2793 2 15.8977 2 15.4999V10.2499C2 9.85213 2.17129 9.4706 2.47618 9.18929C2.78108 8.90799 3.19461 8.74996 3.6258 8.74996H6.06449M11.7548 7.24997V4.24999C11.7548 3.65325 11.4979 3.08096 11.0405 2.65901C10.5832 2.23705 9.96287 2 9.31609 2L6.06449 8.74996V16.9999H15.234C15.6261 17.004 16.0066 16.8772 16.3053 16.6429C16.6041 16.4086 16.801 16.0826 16.8598 15.7249L17.9816 8.97496C18.017 8.75997 18.0012 8.54047 17.9355 8.33165C17.8698 8.12283 17.7557 7.92968 17.601 7.7656C17.4464 7.60151 17.2549 7.47041 17.0399 7.38138C16.8249 7.29234 16.5915 7.2475 16.3558 7.24997H11.7548Z" stroke="#0D47A1" stroke-width="1.5" stroke-linecap="round" stroke-linejoin="round"/>
</svg>
